<svg id="Laag_1" data-name="Laag 1" xmlns="http://www.w3.org/2000/svg" xmlns:xlink="http://www.w3.org/1999/xlink" viewBox="0 0 3151.95 604.58"><defs><style>.cls-1{fill:url(#Naamloos_verloop_14);}.cls-2{fill:url(#Naamloos_verloop_14-2);}.cls-3{fill:url(#Naamloos_verloop_14-3);}.cls-4{fill:#133a60;}</style><linearGradient id="Naamloos_verloop_14" x1="117.53" y1="326.33" x2="483.74" y2="261.75" gradientUnits="userSpaceOnUse"><stop offset="0" stop-color="#164a9a"/><stop offset="0.4" stop-color="#2972a0"/><stop offset="1" stop-color="#44a5a3"/></linearGradient><linearGradient id="Naamloos_verloop_14-2" x1="255.11" y1="364.72" x2="373.44" y2="343.86" xlink:href="#Naamloos_verloop_14"/><linearGradient id="Naamloos_verloop_14-3" x1="4.56" y1="354.78" x2="600.01" y2="249.79" xlink:href="#Naamloos_verloop_14"/></defs><path class="cls-1" d="M400.73,455.11a27.19,27.19,0,0,1-16.89-48.52,130.92,130.92,0,0,0,50-103.19c0-72.51-59-131.51-131.51-131.51s-131.52,59-131.52,131.51A131.18,131.18,0,0,0,218.72,405a27.2,27.2,0,0,1-34.59,42A185.39,185.39,0,0,1,116.38,303.4c0-102.51,83.4-185.9,185.91-185.9s185.9,83.39,185.9,185.9A185,185,0,0,1,417.6,449.23,27.07,27.07,0,0,1,400.73,455.11Z"/><path class="cls-2" d="M362.35,286.3a60.07,60.07,0,0,0-62.92-60c-30.86,1.43-56.12,27-57.17,57.91a59.77,59.77,0,0,0,17.42,44.37,54.49,54.49,0,0,1,15.41,38.51v91.65c0,14.9,11.48,27.88,26.36,28.33a27.2,27.2,0,0,0,28-27.19v-92.8a55.6,55.6,0,0,1,15.79-38.88A59.75,59.75,0,0,0,362.35,286.3Z"/><path class="cls-3" d="M302.29,604.58C135.61,604.58,0,469,0,302.29S135.61,0,302.29,0,604.58,135.61,604.58,302.29,469,604.58,302.29,604.58Zm0-550.39c-136.81,0-248.1,111.29-248.1,248.1s111.29,248.1,248.1,248.1,248.1-111.3,248.1-248.1S439.09,54.19,302.29,54.19Z"/><path class="cls-4" d="M753.49,487.22V91.7h57.88V258.38q31.08-26.26,72.89-26.27,50.37,0,83.61,37,33.76,36.45,33.76,90.58,0,54.68-33.76,91.11-33.24,36.45-83.61,36.44-41.81,0-72.89-26.26l-57.88,26.26ZM876.75,290Q850,290,831.2,310.36t-18.75,49.31q0,29.47,18.75,49.84,18.21,19.85,45.55,19.83,27.87,0,46.1-19.83,18.75-20.36,18.76-49.84,0-28.93-18.76-49.31T876.75,290Z"/><path class="cls-4" d="M1025.75,162.44q0-16.08,10.45-26.53t26-10.45a36.2,36.2,0,0,1,26.26,10.45q10.71,10.46,10.72,26.53,0,15.54-10.72,26a36.24,36.24,0,0,1-26.26,10.45q-15.56,0-26-10.45T1025.75,162.44Zm65.38,317.82h-57.88V239.08h57.88Z"/><path class="cls-4" d="M1131.86,480.26V239.08h57.89v29.48q26.77-36.45,72.35-36.45,41.26,0,68.06,26.8,27.35,26.26,27.33,67V480.26h-57.87V342.52q0-23.58-15.55-39.39T1245,287.31q-23.06,0-39.12,16.09t-16.08,39.12V480.26Z"/><path class="cls-4" d="M1398.22,480.26V91.7h57.89V343.05l80.39-104h70.2l-90,116.3,100.23,124.88h-71.28l-89.5-112.56V480.26Z"/><path class="cls-4" d="M1799.66,289.05l-27.24,5.75q-3.68-14.66-18.33-23.57t-36.68-8.9q-22.53,0-37.19,10.21t-14.67,25.93q0,22,27.77,32.48l61.81,22q49.77,18.85,49.77,60.77,0,30.38-24.1,48.71t-62.34,18.34q-35.09,0-58.93-16T1631,423.15l27.25-5.24q3.64,16.24,20.42,26.72t40.87,10.47q25.13,0,41.38-11.26t16.23-28.55q0-25.16-33.52-36.67l-59.72-22q-46.11-16.23-46.1-56.05,0-29.34,22.79-46.62t58.94-17.29q32.46,0,54,14.41T1799.66,289.05Z"/><path class="cls-4" d="M2054,367.62H1843.39q2.61,37.2,29.33,61.81,26.21,24.1,65.49,24.1,49.76,0,77.53-39.29l27.76,9.43A111.6,111.6,0,0,1,2000,465.58q-27.77,15.19-61.8,15.19-54,0-89.06-34.57-35.1-35.08-35.1-87.49,0-51.85,34.06-86.95,34.56-35.08,85.9-35.1t85.91,35.1q34.57,34.56,34.58,86.95A46.21,46.21,0,0,1,2054,367.62Zm-210-23.58h180.72q-4.73-35.09-30.38-57.61-24.63-22.53-60.77-22.53-35.1,0-59.72,22.53Q1848.63,309.49,1843.92,344Z"/><path class="cls-4" d="M2305.47,304.23l-28.81,9.43a84.53,84.53,0,0,0-32.74-35.09q-21.75-13.1-48.46-13.1-39.81,0-65.48,26.71-26.2,27.26-26.19,66.53T2130,425.24Q2155.63,452,2195.46,452q26.72,0,48.46-13.09a84.55,84.55,0,0,0,32.74-35.1l28.81,9.43a111.39,111.39,0,0,1-43.75,49.24q-29.58,18.36-66.26,18.34-51.35,0-86.95-34.57-35.12-35.08-35.11-87.49t35.11-86.95q35.09-35.08,86.95-35.1,36.67,0,66.26,18.33T2305.47,304.23Z"/><path class="cls-4" d="M2321.23,386V240.85h28.82V378.62q0,32.49,20.95,53.43T2423.9,453q35.1,0,59.2-21.47,24.09-22,24.1-54V240.85H2536V476.58H2507.2V431.53q-27.25,49.25-90.11,49.24-41.37,0-68.62-27.24T2321.23,386Z"/><path class="cls-4" d="M2598.81,341.42V476.58H2570V240.85h28.81v45.58q27.77-49.77,90.11-49.77h6.8v32a41.84,41.84,0,0,0-14.14-2.09q-34.57,0-59.19,21.47Q2598.81,308.94,2598.81,341.42Z"/><path class="cls-4" d="M2715.37,162.8a21.1,21.1,0,0,1,6-15.19c4-4.2,9.16-6.29,15.44-6.29a20.43,20.43,0,0,1,15.46,6.29,21.17,21.17,0,0,1,6,15.19q1,13.09-10.21,18.59a24.43,24.43,0,0,1-22.53,0Q2714.32,175.9,2715.37,162.8Zm36.14,313.78H2722.7V240.85h28.81Z"/><path class="cls-4" d="M2768.2,266.52V240.85h40.34V190.56h28.81v50.29h70.2v25.67h-70.2V406.91q0,17.8,10.48,29.86t25.67,12.05h34.05v27.76h-35.63q-27.23,0-45.31-19.12t-18.07-47.41V266.52Z"/><path class="cls-4" d="M3001.08,524.25l23.05-54.48-96.39-228.92h30.39l80.67,194.87,83.28-194.87H3152L3025.7,534.2q-24.09,60.24-79.1,60.24h-9.43V566.68h9.43Q2983.26,566.68,3001.08,524.25Z"/></svg>