<svg id="Laag_1" data-name="Laag 1" xmlns="http://www.w3.org/2000/svg" xmlns:xlink="http://www.w3.org/1999/xlink" viewBox="0 0 3151.95 2195.57"><defs><style>.cls-1{fill:url(#Naamloos_verloop_14);}.cls-2{fill:url(#Naamloos_verloop_14-2);}.cls-3{fill:url(#Naamloos_verloop_14-3);}.cls-4{fill:#133a60;}</style><linearGradient id="Naamloos_verloop_14" x1="502.98" y1="1085.53" x2="772.4" y2="1038.02" gradientUnits="userSpaceOnUse"><stop offset="0" stop-color="#164a9a"/><stop offset="0.4" stop-color="#2972a0"/><stop offset="1" stop-color="#44a5a3"/></linearGradient><linearGradient id="Naamloos_verloop_14-2" x1="604.2" y1="1113.78" x2="691.26" y2="1098.43" xlink:href="#Naamloos_verloop_14"/><linearGradient id="Naamloos_verloop_14-3" x1="419.87" y1="1106.46" x2="857.95" y2="1029.22" xlink:href="#Naamloos_verloop_14"/></defs><path class="cls-1" d="M711.34,1180.27a20,20,0,0,1-12.43-35.69,96.76,96.76,0,1,0-121.48-1.2A20,20,0,1,1,552,1174.26a136.38,136.38,0,0,1-49.84-105.6c0-75.41,61.35-136.77,136.77-136.77s136.77,61.36,136.77,136.77A136.09,136.09,0,0,1,723.74,1176,19.89,19.89,0,0,1,711.34,1180.27Z"/><path class="cls-2" d="M683.1,1056.08a44.19,44.19,0,1,0-75.54,31.1,40.1,40.1,0,0,1,11.34,28.34V1183c0,11,8.44,20.51,19.39,20.84a20,20,0,0,0,20.63-20v-68.28a40.89,40.89,0,0,1,11.61-28.6A44,44,0,0,0,683.1,1056.08Z"/><path class="cls-3" d="M638.91,1290.24c-122.63,0-222.4-99.77-222.4-222.4s99.77-222.39,222.4-222.39,222.4,99.76,222.4,222.39S761.54,1290.24,638.91,1290.24Zm0-404.93c-100.65,0-182.53,81.88-182.53,182.53s81.88,182.53,182.53,182.53,182.53-81.88,182.53-182.53S739.56,885.31,638.91,885.31Z"/><path class="cls-4" d="M970.86,1203.9v-291h42.59v122.63q22.86-19.32,53.62-19.33,37.07,0,61.51,27.21,24.86,26.82,24.85,66.64,0,40.21-24.85,67-24.45,26.81-61.51,26.81-30.75,0-53.62-19.32l-42.59,19.32Zm90.69-145.1q-19.71,0-33.51,15t-13.8,36.28q0,21.69,13.8,36.67,13.39,14.6,33.51,14.59,20.51,0,33.91-14.59,13.8-15,13.81-36.67,0-21.3-13.81-36.28T1061.55,1058.8Z"/><path class="cls-4" d="M1171.16,965q0-11.82,7.69-19.51a26,26,0,0,1,19.13-7.7,26.62,26.62,0,0,1,19.32,7.7q7.88,7.68,7.88,19.51a25.66,25.66,0,0,1-7.88,19.13,26.65,26.65,0,0,1-19.32,7.69A26.28,26.28,0,0,1,1171.16,965Zm48.11,233.83h-42.59V1021.34h42.59Z"/><path class="cls-4" d="M1249.24,1198.78V1021.34h42.58V1043q19.71-26.82,53.23-26.82,30.36,0,50.08,19.72,20.11,19.32,20.11,49.29v113.56h-42.59V1097.44q0-17.34-11.43-29t-28.78-11.64a40.41,40.41,0,0,0-40.62,40.62v101.34Z"/><path class="cls-4" d="M1445.2,1198.78V912.91h42.59v184.92l59.14-76.49h51.65l-66.24,85.56,73.74,91.88h-52.45L1487.79,1116v82.81Z"/><path class="cls-4" d="M1740.54,1058.1l-20,4.24q-2.7-10.78-13.49-17.35t-27-6.55q-16.58,0-27.36,7.52T1641.88,1065q0,16.17,20.43,23.89l45.47,16.18q36.62,13.88,36.61,44.71,0,22.35-17.73,35.84t-45.85,13.49q-25.83,0-43.36-11.75t-21-30.64l20-3.86q2.68,12,15,19.66t30.06,7.71q18.5,0,30.44-8.29t12-21q0-18.51-24.67-27l-43.93-16.19q-33.91-11.94-33.92-41.23,0-21.58,16.77-34.3t43.36-12.72q23.88,0,39.69,10.6T1740.54,1058.1Z"/><path class="cls-4" d="M1927.64,1115.9H1772.72q1.92,27.38,21.57,45.48,19.28,17.74,48.18,17.73,36.62,0,57-28.91l20.43,6.94a82.16,82.16,0,0,1-32,30.84q-20.45,11.18-45.48,11.17-39.71,0-65.52-25.43-25.82-25.82-25.82-64.37,0-38.14,25-64,25.44-25.82,63.21-25.82t63.2,25.82q25.44,25.44,25.44,64A33.63,33.63,0,0,1,1927.64,1115.9Zm-154.54-17.34h133q-3.46-25.82-22.35-42.39-18.12-16.56-44.71-16.57-25.83,0-43.93,16.57Q1776.56,1073.14,1773.1,1098.56Z"/><path class="cls-4" d="M2112.67,1069.27l-21.2,6.94a62.2,62.2,0,0,0-24.08-25.82,67.81,67.81,0,0,0-35.65-9.63q-29.29,0-48.18,19.65-19.27,20-19.26,48.94t19.26,49q18.89,19.65,48.18,19.65a67.71,67.71,0,0,0,35.65-9.63,62.14,62.14,0,0,0,24.08-25.82l21.2,6.94a82,82,0,0,1-32.18,36.22q-21.78,13.5-48.75,13.49-37.79,0-64-25.43-25.83-25.82-25.83-64.37t25.83-64q25.8-25.82,64-25.82,27,0,48.75,13.49A82.13,82.13,0,0,1,2112.67,1069.27Z"/><path class="cls-4" d="M2124.27,1129.39V1022.64h21.2V1124q0,23.89,15.41,39.31t38.92,15.42q25.83,0,43.55-15.81,17.73-16.18,17.73-39.69V1022.64h21.2v173.43h-21.2v-33.15q-20,36.24-66.28,36.23-30.45,0-50.49-20T2124.27,1129.39Z"/><path class="cls-4" d="M2328.49,1096.63v99.44h-21.2V1022.64h21.2v33.53q20.41-36.62,66.29-36.61h5v23.5a31.14,31.14,0,0,0-10.41-1.54q-25.44,0-43.55,15.81Q2328.49,1072.73,2328.49,1096.63Z"/><path class="cls-4" d="M2414.24,965.22a15.54,15.54,0,0,1,4.43-11.18,16.28,16.28,0,0,1,22.74,0,15.58,15.58,0,0,1,4.43,11.18q.76,9.63-7.52,13.68a18,18,0,0,1-16.57,0Q2413.46,974.85,2414.24,965.22Zm26.59,230.85h-21.2V1022.64h21.2Z"/><path class="cls-4" d="M2453.11,1041.52v-18.88h29.68v-37H2504v37h51.65v18.88H2504v103.29q0,13.11,7.71,22t18.89,8.86h25.05v20.43h-26.21q-20,0-33.34-14.07t-13.29-34.88v-105.6Z"/><path class="cls-4" d="M2624.44,1231.14l17-40.08-70.91-168.42h22.35L2652.19,1166l61.27-143.37h22l-92.89,215.82q-17.73,44.32-58.19,44.32h-6.94v-20.42h6.94Q2611.33,1262.36,2624.44,1231.14Z"/></svg>